<svg width="184" height="45" viewBox="0 0 184 45" fill="none" xmlns="http://www.w3.org/2000/svg">
<path d="M31.4375 26.6719C31.7604 27.8594 31.9219 28.9375 31.9219 29.9062C31.9219 30.1562 31.9115 30.3958 31.8906 30.625C31.776 31.7604 31.3802 32.3281 30.7031 32.3281C30.5052 32.3281 30.2812 32.2812 30.0312 32.1875C28.3958 31.5417 26.7708 28.0417 25.1562 21.6875C24.8021 20.3125 24.2135 17.7865 23.3906 14.1094C22.7552 11.2448 22.276 9.31771 21.9531 8.32812C21.9115 12.0885 21.1302 17.0833 19.6094 23.3125C18.8385 26.4792 18.0469 28.8958 17.2344 30.5625C16.4427 32.1875 15.6823 33 14.9531 33C14.7969 33 14.6406 32.9635 14.4844 32.8906C12.901 32.1615 11.5521 28.5885 10.4375 22.1719C9.07292 14.3594 8.29688 10.2292 8.10938 9.78125C7.49479 11.4062 6.85938 14.9479 6.20312 20.4062C5.54688 25.8021 4.92708 29.224 4.34375 30.6719C4.03125 31.4323 3.64583 31.8125 3.1875 31.8125C2.91667 31.8125 2.61458 31.6719 2.28125 31.3906C1.5 30.7135 1 29.7969 0.78125 28.6406C0.6875 28.1719 0.640625 27.6146 0.640625 26.9688C0.640625 24.8958 1.11458 21.9219 2.0625 18.0469V18.0625L3.625 11.0781C4.23958 8.35938 4.6875 6.65625 4.96875 5.96875C5.52083 4.61458 6.3125 3.67188 7.34375 3.14062C7.76042 2.92188 8.16667 2.8125 8.5625 2.8125C9.28125 2.8125 9.96354 3.16667 10.6094 3.875C12.026 5.4375 13.0781 8.5625 13.7656 13.25C13.9323 14.3854 14.1562 16.2448 14.4375 18.8281C14.6771 20.9948 14.8802 22.5104 15.0469 23.375C15.276 22.0312 15.8177 19.0625 16.6719 14.4688C17.4115 10.5208 17.901 7.74479 18.1406 6.14062C18.474 3.89062 18.75 2.54167 18.9688 2.09375C19.5312 0.895833 20.651 0.296875 22.3281 0.296875H22.5C23.6979 1.59896 24.7604 3.71354 25.6875 6.64062C27.0625 11.0052 28.9792 17.6823 31.4375 26.6719ZM50.0406 34.7656C50.2073 36.0052 50.2906 37.0573 50.2906 37.9219C50.2906 38.6406 50.2333 39.224 50.1188 39.6719C49.6917 41.276 48.4781 42.6667 46.4781 43.8438C45.499 44.4271 44.4573 44.7188 43.3531 44.7188C40.6656 44.7188 37.9781 43.1615 35.2906 40.0469C34.9677 39.6302 34.7438 39.1302 34.6188 38.5469C34.5667 38.2865 34.5406 38.0469 34.5406 37.8281C34.5406 37.5156 34.5927 37.25 34.6969 37.0312C34.8948 36.6354 35.2073 36.4375 35.6344 36.4375C35.9365 36.4375 36.2906 36.5312 36.6969 36.7188C38.2385 37.4479 39.7385 38.2552 41.1969 39.1406C42.2177 39.7656 43.0823 40.0781 43.7906 40.0781C44.3844 40.0781 44.8688 39.8542 45.2438 39.4062C45.9208 38.5833 46.2594 37.0833 46.2594 34.9062C46.2594 32.6146 45.8896 29.5833 45.15 25.8125C44.7854 26.2708 44.2854 26.9948 43.65 27.9844C42.7854 29.3281 42.0771 30.2708 41.525 30.8125C40.6083 31.7292 39.5563 32.2865 38.3688 32.4844C38.1083 32.526 37.8583 32.5469 37.6188 32.5469C36.6917 32.5469 35.9521 32.2292 35.4 31.5938C34.6292 30.7083 34.2438 29.1979 34.2438 27.0625C34.2438 25.9896 34.3427 24.75 34.5406 23.3438C34.6552 22.4896 34.9938 21.25 35.5563 19.625C36.4 17.1771 37.2854 15.9531 38.2125 15.9531C38.7854 15.9531 39.3063 16.4115 39.775 17.3281L39.8063 17.4531C39.8063 18.5573 39.5406 20.1615 39.0094 22.2656C38.499 24.3073 38.2438 25.9167 38.2438 27.0938C38.2438 27.2396 38.249 27.3802 38.2594 27.5156C39.1552 27.1927 40.0458 26.3125 40.9313 24.875C41.4521 24.0208 42.1604 22.599 43.0563 20.6094C43.9 18.7344 44.5354 17.4688 44.9625 16.8125C45.6604 15.7292 46.3635 15.1875 47.0719 15.1875C47.2073 15.1875 47.3427 15.2083 47.4781 15.25H47.5563C47.775 15.25 48.0042 15.3698 48.2438 15.6094C49.2125 16.5885 49.6969 20.5104 49.6969 27.375V29.5C49.6969 30.7812 49.7125 31.625 49.7438 32.0312C49.7854 32.6875 49.8844 33.599 50.0406 34.7656ZM70.175 17C70.3521 17.3333 70.4406 17.651 70.4406 17.9531C70.4406 18.1927 70.3885 18.4167 70.2844 18.625C69.8677 19.4792 68.8 20.0625 67.0812 20.375C66.0187 20.5625 64.399 20.7396 62.2219 20.9062L61.5969 20.9531C61.5865 21.026 61.5708 21.2344 61.55 21.5781C61.4771 22.4531 61.4406 23.1354 61.4406 23.625C61.4406 23.8333 61.4458 24.0052 61.4562 24.1406C61.5708 25.276 61.6437 26.7031 61.675 28.4219V29.125C61.675 31.5104 61.4719 32.7708 61.0656 32.9062C61.0448 32.9688 60.774 33 60.2531 33C58.9927 33 58.3104 32.9479 58.2062 32.8438C57.3312 31.9896 56.8937 30.1094 56.8937 27.2031C56.8937 26.3177 56.9354 25.3438 57.0187 24.2812C57.0292 24.0833 57.0344 23.8906 57.0344 23.7031C57.0344 22.7969 56.8625 22.1562 56.5187 21.7812C56.2167 21.4479 55.55 21.2812 54.5187 21.2812H54.2375C54.0708 21.2917 53.9146 21.2969 53.7687 21.2969C53.0708 21.2969 52.5396 21.2344 52.175 21.1094C51.4562 20.8594 50.9406 20.3333 50.6281 19.5312V19.4375C50.6281 19.0521 50.7583 18.7292 51.0187 18.4688C51.6021 17.8646 52.6854 17.5625 54.2687 17.5625C54.6229 17.5625 54.925 17.5781 55.175 17.6094C55.3729 17.6302 55.5552 17.6406 55.7219 17.6406C56.1177 17.6406 56.4979 17.5677 56.8625 17.4219C56.7375 16.0469 56.675 14.6927 56.675 13.3594C56.675 12.3281 56.7115 11.3125 56.7844 10.3125C57.024 7.27083 57.6021 5.24479 58.5187 4.23438C58.9667 3.73438 59.4979 3.48438 60.1125 3.48438H60.2687C60.5187 3.48438 60.7375 3.58333 60.925 3.78125C61.3417 4.22917 61.55 5.42708 61.55 7.375C61.55 8.52083 61.4771 9.92188 61.3312 11.5781C61.2375 12.6615 61.1854 13.3698 61.175 13.7031C61.1646 14.0781 61.1594 14.5677 61.1594 15.1719V17.0312C61.1594 17.1979 61.4771 17.2812 62.1125 17.2812C62.2479 17.2812 62.399 17.276 62.5656 17.2656C63.5344 17.2135 64.7375 17.0469 66.175 16.7656C66.2479 16.7448 66.4094 16.7031 66.6594 16.6406C67.5448 16.4115 68.2219 16.2969 68.6906 16.2969C69.4406 16.2969 69.9354 16.5312 70.175 17ZM71.5125 12.7344C70.8146 12.6927 70.2885 12.5 69.9344 12.1562C69.6427 11.8854 69.4969 11.5625 69.4969 11.1875V11.1406C69.5177 10.5677 69.8042 10.0677 70.3562 9.64062C70.8562 9.26562 71.4292 9.07812 72.075 9.07812C72.2 9.07812 72.325 9.08333 72.45 9.09375C73.1167 9.09375 73.6427 9.23958 74.0281 9.53125C74.3927 9.80208 74.575 10.1615 74.575 10.6094C74.575 11.151 74.3302 11.6354 73.8406 12.0625C73.3198 12.5312 72.6896 12.7656 71.95 12.7656C71.8146 12.7656 71.6687 12.7552 71.5125 12.7344ZM72.5594 16.25C73.2781 16.25 73.6375 16.5573 73.6375 17.1719C74.1062 19.776 74.3406 22.6719 74.3406 25.8594C74.3406 26.2344 74.3354 26.6198 74.325 27.0156L74.2312 31.7188C74.2312 31.9583 73.9135 32.2344 73.2781 32.5469C72.6635 32.849 72.1687 33 71.7937 33C71.5958 33 71.4396 32.9531 71.325 32.8594C70.4812 32.1615 69.9865 31.0625 69.8406 29.5625C69.8094 29.2708 69.7937 28.9271 69.7937 28.5312C69.7937 27.6771 69.8562 26.5625 69.9812 25.1875C70.0333 24.625 70.0698 24.2083 70.0906 23.9375C70.1635 22.9167 70.2 21.8594 70.2 20.7656C70.2 20.401 70.1948 20.0312 70.1844 19.6562C70.174 19.4271 70.1479 19.1562 70.1062 18.8438C70.0958 18.75 70.0906 18.6562 70.0906 18.5625C70.0906 18.0625 70.2729 17.5521 70.6375 17.0312C71.0021 16.5104 71.6427 16.25 72.5594 16.25ZM92.9906 28.6719C93.2719 29.7344 93.4125 30.5938 93.4125 31.25C93.4125 31.7812 93.3187 32.1719 93.1312 32.4219C92.8292 32.8073 92.3448 33 91.6781 33C91.4177 33 91.126 32.9688 90.8031 32.9062C89.9177 32.75 89.2146 31.6823 88.6937 29.7031C88.3812 28.5365 88.0375 26.5208 87.6625 23.6562C87.4021 21.6979 87.199 20.4479 87.0531 19.9062C85.4906 21.0521 84.3917 22.3333 83.7562 23.75C83.2354 24.9167 82.9646 26.3698 82.9437 28.1094C82.9333 28.8594 82.6469 29.7135 82.0844 30.6719C81.4385 31.776 80.7458 32.3281 80.0062 32.3281C79.3708 32.3281 78.8031 31.8854 78.3031 31C78.001 30.4583 77.85 29.5625 77.85 28.3125C77.85 27.1771 77.975 25.75 78.225 24.0312C78.4437 22.5312 78.5583 21.5052 78.5687 20.9531C78.5792 19.8594 78.8656 19.0573 79.4281 18.5469C79.824 18.1719 80.324 17.9844 80.9281 17.9844C81.1677 17.9844 81.4281 18.0156 81.7094 18.0781C82.3865 18.224 82.751 18.4583 82.8031 18.7812C83.1469 18.4167 83.5948 17.8073 84.1469 16.9531C84.6573 16.1615 85.0687 15.5833 85.3812 15.2188C85.6208 14.9479 86.0062 14.6458 86.5375 14.3125C87.2562 13.875 87.8917 13.6562 88.4437 13.6562C89.1104 13.6562 89.5948 13.974 89.8969 14.6094C90.7615 16.599 91.501 19.7135 92.1156 23.9531C92.3448 25.4635 92.5271 26.599 92.6625 27.3594C92.7042 27.6094 92.8135 28.0469 92.9906 28.6719ZM100.438 24.7969C101.104 24.7969 101.651 24.5625 102.078 24.0938C102.474 23.6667 102.703 23.1354 102.766 22.5C102.776 22.3958 102.781 22.2917 102.781 22.1875C102.781 21.6875 102.656 21.2448 102.406 20.8594C102.073 20.3385 101.583 20.0365 100.938 19.9531C100.854 19.9427 100.776 19.9375 100.703 19.9375C100.286 19.9375 99.9635 20.1094 99.7344 20.4531C99.4948 20.8073 99.375 21.2969 99.375 21.9219C99.375 23.3177 99.7292 24.276 100.438 24.7969ZM112.875 23.5C113.635 22.9375 114.208 22.6562 114.594 22.6562C114.979 22.6562 115.172 22.9479 115.172 23.5312C114.922 25.2917 113.938 27.1406 112.219 29.0781C110.542 30.9531 108.839 32.1927 107.109 32.7969C106.484 32.9323 105.865 33 105.25 33C102.198 33 99.3854 31.2708 96.8125 27.8125C95.9375 26.6354 95.5 25.0208 95.5 22.9688C95.5 22.1042 95.5781 21.1562 95.7344 20.125C96.0156 18.2708 97.4948 17.0469 100.172 16.4531C100.536 16.3698 100.896 16.3281 101.25 16.3281C102.219 16.3281 103.125 16.6406 103.969 17.2656C104.927 17.974 105.745 19.0312 106.422 20.4375C106.599 21.0729 106.688 21.6667 106.688 22.2188C106.688 23.8542 105.922 25.1719 104.391 26.1719C104.141 26.3385 103.807 26.4948 103.391 26.6406C102.922 26.8073 102.641 26.9115 102.547 26.9531C102.328 27.0677 102.219 27.2135 102.219 27.3906V27.4219C102.24 27.6406 102.422 27.9375 102.766 28.3125C103.495 29.1042 104.333 29.5 105.281 29.5C105.552 29.5 105.833 29.4688 106.125 29.4062C107.344 29.1354 108.562 28.2812 109.781 26.8438C111.417 24.9375 112.448 23.8229 112.875 23.5ZM126.994 15.8594C127.577 15.8594 128.171 16.0833 128.775 16.5312C129.317 16.9375 129.588 17.3698 129.588 17.8281C129.588 17.9427 129.567 18.0625 129.525 18.1875C127.379 19.2812 125.588 20.776 124.15 22.6719C122.567 24.7448 121.473 27.1667 120.869 29.9375C120.431 31.9688 119.801 32.9844 118.978 32.9844C118.624 32.9844 118.233 32.7917 117.806 32.4062C116.754 31.4479 115.931 29.599 115.338 26.8594C114.858 24.6719 114.619 22.5417 114.619 20.4688C114.817 19.625 115.134 19.0469 115.572 18.7344C115.78 18.599 115.994 18.5312 116.213 18.5312C116.452 18.5312 116.692 18.6042 116.931 18.75C118.077 19.4583 118.733 21.1094 118.9 23.7031C119.327 22.1302 120.311 20.4896 121.853 18.7812C123.614 16.8333 125.317 15.8594 126.963 15.8594H126.994ZM140.253 20.9688C140.191 20.9271 140.118 20.9062 140.034 20.9062C139.691 20.9062 139.217 21.2344 138.613 21.8906C137.842 22.7448 137.071 23.8854 136.3 25.3125C135.592 26.6458 135.18 27.651 135.066 28.3281C136.139 28.026 137.264 27.0156 138.441 25.2969C139.597 23.6198 140.201 22.1771 140.253 20.9688ZM148.034 28.4062C148.784 29.4479 149.159 30.3073 149.159 30.9844C149.066 31.4948 148.743 31.9479 148.191 32.3438C147.649 32.7396 147.076 32.9375 146.472 32.9375C145.972 32.9375 145.555 32.7812 145.222 32.4688C144.534 31.8438 143.904 30.625 143.331 28.8125C142.894 27.3958 142.467 26.4219 142.05 25.8906C141.956 26.0365 141.816 26.2552 141.628 26.5469C140.503 28.3281 139.581 29.6146 138.863 30.4062C137.623 31.7604 136.326 32.5833 134.972 32.875C134.576 32.9583 134.196 33 133.831 33C132.769 33 131.909 32.6615 131.253 31.9844C130.586 31.3073 130.222 30.3854 130.159 29.2188C130.159 26.8646 131.654 23.974 134.644 20.5469C138.477 17.4323 141.373 15.875 143.331 15.875H143.488C144.279 15.875 144.899 16.625 145.347 18.125C145.607 18.9688 145.852 20.3021 146.081 22.125C146.154 22.7604 146.206 23.151 146.238 23.2969C146.269 23.4115 146.326 23.6823 146.409 24.1094C146.691 25.5365 146.972 26.5625 147.253 27.1875C147.378 27.4583 147.639 27.8646 148.034 28.4062ZM163.512 15.8594C164.096 15.8594 164.69 16.0833 165.294 16.5312C165.835 16.9375 166.106 17.3698 166.106 17.8281C166.106 17.9427 166.085 18.0625 166.044 18.1875C163.898 19.2812 162.106 20.776 160.669 22.6719C159.085 24.7448 157.992 27.1667 157.387 29.9375C156.95 31.9688 156.32 32.9844 155.497 32.9844C155.143 32.9844 154.752 32.7917 154.325 32.4062C153.273 31.4479 152.45 29.599 151.856 26.8594C151.377 24.6719 151.137 22.5417 151.137 20.4688C151.335 19.625 151.653 19.0469 152.091 18.7344C152.299 18.599 152.512 18.5312 152.731 18.5312C152.971 18.5312 153.21 18.6042 153.45 18.75C154.596 19.4583 155.252 21.1094 155.419 23.7031C155.846 22.1302 156.83 20.4896 158.372 18.7812C160.132 16.8333 161.835 15.8594 163.481 15.8594H163.512ZM183.022 34.7656C183.189 36.0052 183.272 37.0573 183.272 37.9219C183.272 38.6406 183.215 39.224 183.1 39.6719C182.673 41.276 181.459 42.6667 179.459 43.8438C178.48 44.4271 177.439 44.7188 176.334 44.7188C173.647 44.7188 170.959 43.1615 168.272 40.0469C167.949 39.6302 167.725 39.1302 167.6 38.5469C167.548 38.2865 167.522 38.0469 167.522 37.8281C167.522 37.5156 167.574 37.25 167.678 37.0312C167.876 36.6354 168.189 36.4375 168.616 36.4375C168.918 36.4375 169.272 36.5312 169.678 36.7188C171.22 37.4479 172.72 38.2552 174.178 39.1406C175.199 39.7656 176.064 40.0781 176.772 40.0781C177.366 40.0781 177.85 39.8542 178.225 39.4062C178.902 38.5833 179.241 37.0833 179.241 34.9062C179.241 32.6146 178.871 29.5833 178.131 25.8125C177.767 26.2708 177.267 26.9948 176.631 27.9844C175.767 29.3281 175.058 30.2708 174.506 30.8125C173.59 31.7292 172.538 32.2865 171.35 32.4844C171.09 32.526 170.84 32.5469 170.6 32.5469C169.673 32.5469 168.933 32.2292 168.381 31.5938C167.61 30.7083 167.225 29.1979 167.225 27.0625C167.225 25.9896 167.324 24.75 167.522 23.3438C167.636 22.4896 167.975 21.25 168.538 19.625C169.381 17.1771 170.267 15.9531 171.194 15.9531C171.767 15.9531 172.288 16.4115 172.756 17.3281L172.788 17.4531C172.788 18.5573 172.522 20.1615 171.991 22.2656C171.48 24.3073 171.225 25.9167 171.225 27.0938C171.225 27.2396 171.23 27.3802 171.241 27.5156C172.136 27.1927 173.027 26.3125 173.913 24.875C174.433 24.0208 175.142 22.599 176.038 20.6094C176.881 18.7344 177.517 17.4688 177.944 16.8125C178.642 15.7292 179.345 15.1875 180.053 15.1875C180.189 15.1875 180.324 15.2083 180.459 15.25H180.538C180.756 15.25 180.985 15.3698 181.225 15.6094C182.194 16.5885 182.678 20.5104 182.678 27.375V29.5C182.678 30.7812 182.694 31.625 182.725 32.0312C182.767 32.6875 182.866 33.599 183.022 34.7656Z" fill="#2F2F2F" fill-opacity="0.85"/>
</svg>
