<svg width="75" height="45" viewBox="0 0 75 45" fill="none" xmlns="http://www.w3.org/2000/svg">
<path d="M31.4375 26.6719C31.7604 27.8594 31.9219 28.9375 31.9219 29.9062C31.9219 30.1562 31.9115 30.3958 31.8906 30.625C31.776 31.7604 31.3802 32.3281 30.7031 32.3281C30.5052 32.3281 30.2812 32.2812 30.0312 32.1875C28.3958 31.5417 26.7708 28.0417 25.1562 21.6875C24.8021 20.3125 24.2135 17.7865 23.3906 14.1094C22.7552 11.2448 22.276 9.31771 21.9531 8.32812C21.9115 12.0885 21.1302 17.0833 19.6094 23.3125C18.8385 26.4792 18.0469 28.8958 17.2344 30.5625C16.4427 32.1875 15.6823 33 14.9531 33C14.7969 33 14.6406 32.9635 14.4844 32.8906C12.901 32.1615 11.5521 28.5885 10.4375 22.1719C9.07292 14.3594 8.29688 10.2292 8.10938 9.78125C7.49479 11.4062 6.85938 14.9479 6.20312 20.4062C5.54688 25.8021 4.92708 29.224 4.34375 30.6719C4.03125 31.4323 3.64583 31.8125 3.1875 31.8125C2.91667 31.8125 2.61458 31.6719 2.28125 31.3906C1.5 30.7135 1 29.7969 0.78125 28.6406C0.6875 28.1719 0.640625 27.6146 0.640625 26.9688C0.640625 24.8958 1.11458 21.9219 2.0625 18.0469V18.0625L3.625 11.0781C4.23958 8.35938 4.6875 6.65625 4.96875 5.96875C5.52083 4.61458 6.3125 3.67188 7.34375 3.14062C7.76042 2.92188 8.16667 2.8125 8.5625 2.8125C9.28125 2.8125 9.96354 3.16667 10.6094 3.875C12.026 5.4375 13.0781 8.5625 13.7656 13.25C13.9323 14.3854 14.1562 16.2448 14.4375 18.8281C14.6771 20.9948 14.8802 22.5104 15.0469 23.375C15.276 22.0312 15.8177 19.0625 16.6719 14.4688C17.4115 10.5208 17.901 7.74479 18.1406 6.14062C18.474 3.89062 18.75 2.54167 18.9688 2.09375C19.5312 0.895833 20.651 0.296875 22.3281 0.296875H22.5C23.6979 1.59896 24.7604 3.71354 25.6875 6.64062C27.0625 11.0052 28.9792 17.6823 31.4375 26.6719ZM50.0406 34.7656C50.2073 36.0052 50.2906 37.0573 50.2906 37.9219C50.2906 38.6406 50.2333 39.224 50.1188 39.6719C49.6917 41.276 48.4781 42.6667 46.4781 43.8438C45.499 44.4271 44.4573 44.7188 43.3531 44.7188C40.6656 44.7188 37.9781 43.1615 35.2906 40.0469C34.9677 39.6302 34.7438 39.1302 34.6188 38.5469C34.5667 38.2865 34.5406 38.0469 34.5406 37.8281C34.5406 37.5156 34.5927 37.25 34.6969 37.0312C34.8948 36.6354 35.2073 36.4375 35.6344 36.4375C35.9365 36.4375 36.2906 36.5312 36.6969 36.7188C38.2385 37.4479 39.7385 38.2552 41.1969 39.1406C42.2177 39.7656 43.0823 40.0781 43.7906 40.0781C44.3844 40.0781 44.8688 39.8542 45.2438 39.4062C45.9208 38.5833 46.2594 37.0833 46.2594 34.9062C46.2594 32.6146 45.8896 29.5833 45.15 25.8125C44.7854 26.2708 44.2854 26.9948 43.65 27.9844C42.7854 29.3281 42.0771 30.2708 41.525 30.8125C40.6083 31.7292 39.5563 32.2865 38.3688 32.4844C38.1083 32.526 37.8583 32.5469 37.6188 32.5469C36.6917 32.5469 35.9521 32.2292 35.4 31.5938C34.6292 30.7083 34.2438 29.1979 34.2438 27.0625C34.2438 25.9896 34.3427 24.75 34.5406 23.3438C34.6552 22.4896 34.9938 21.25 35.5563 19.625C36.4 17.1771 37.2854 15.9531 38.2125 15.9531C38.7854 15.9531 39.3063 16.4115 39.775 17.3281L39.8063 17.4531C39.8063 18.5573 39.5406 20.1615 39.0094 22.2656C38.499 24.3073 38.2438 25.9167 38.2438 27.0938C38.2438 27.2396 38.249 27.3802 38.2594 27.5156C39.1552 27.1927 40.0458 26.3125 40.9313 24.875C41.4521 24.0208 42.1604 22.599 43.0563 20.6094C43.9 18.7344 44.5354 17.4688 44.9625 16.8125C45.6604 15.7292 46.3635 15.1875 47.0719 15.1875C47.2073 15.1875 47.3427 15.2083 47.4781 15.25H47.5563C47.775 15.25 48.0042 15.3698 48.2438 15.6094C49.2125 16.5885 49.6969 20.5104 49.6969 27.375V29.5C49.6969 30.7812 49.7125 31.625 49.7438 32.0312C49.7854 32.6875 49.8844 33.599 50.0406 34.7656ZM70.175 17C70.3521 17.3333 70.4406 17.651 70.4406 17.9531C70.4406 18.1927 70.3885 18.4167 70.2844 18.625C69.8677 19.4792 68.8 20.0625 67.0812 20.375C66.0187 20.5625 64.399 20.7396 62.2219 20.9062L61.5969 20.9531C61.5865 21.026 61.5708 21.2344 61.55 21.5781C61.4771 22.4531 61.4406 23.1354 61.4406 23.625C61.4406 23.8333 61.4458 24.0052 61.4562 24.1406C61.5708 25.276 61.6437 26.7031 61.675 28.4219V29.125C61.675 31.5104 61.4719 32.7708 61.0656 32.9062C61.0448 32.9688 60.774 33 60.2531 33C58.9927 33 58.3104 32.9479 58.2062 32.8438C57.3312 31.9896 56.8937 30.1094 56.8937 27.2031C56.8937 26.3177 56.9354 25.3438 57.0187 24.2812C57.0292 24.0833 57.0344 23.8906 57.0344 23.7031C57.0344 22.7969 56.8625 22.1562 56.5187 21.7812C56.2167 21.4479 55.55 21.2812 54.5187 21.2812H54.2375C54.0708 21.2917 53.9146 21.2969 53.7687 21.2969C53.0708 21.2969 52.5396 21.2344 52.175 21.1094C51.4562 20.8594 50.9406 20.3333 50.6281 19.5312V19.4375C50.6281 19.0521 50.7583 18.7292 51.0187 18.4688C51.6021 17.8646 52.6854 17.5625 54.2687 17.5625C54.6229 17.5625 54.925 17.5781 55.175 17.6094C55.3729 17.6302 55.5552 17.6406 55.7219 17.6406C56.1177 17.6406 56.4979 17.5677 56.8625 17.4219C56.7375 16.0469 56.675 14.6927 56.675 13.3594C56.675 12.3281 56.7115 11.3125 56.7844 10.3125C57.024 7.27083 57.6021 5.24479 58.5187 4.23438C58.9667 3.73438 59.4979 3.48438 60.1125 3.48438H60.2687C60.5187 3.48438 60.7375 3.58333 60.925 3.78125C61.3417 4.22917 61.55 5.42708 61.55 7.375C61.55 8.52083 61.4771 9.92188 61.3312 11.5781C61.2375 12.6615 61.1854 13.3698 61.175 13.7031C61.1646 14.0781 61.1594 14.5677 61.1594 15.1719V17.0312C61.1594 17.1979 61.4771 17.2812 62.1125 17.2812C62.2479 17.2812 62.399 17.276 62.5656 17.2656C63.5344 17.2135 64.7375 17.0469 66.175 16.7656C66.2479 16.7448 66.4094 16.7031 66.6594 16.6406C67.5448 16.4115 68.2219 16.2969 68.6906 16.2969C69.4406 16.2969 69.9354 16.5312 70.175 17ZM71.5125 12.7344C70.8146 12.6927 70.2885 12.5 69.9344 12.1562C69.6427 11.8854 69.4969 11.5625 69.4969 11.1875V11.1406C69.5177 10.5677 69.8042 10.0677 70.3562 9.64062C70.8562 9.26562 71.4292 9.07812 72.075 9.07812C72.2 9.07812 72.325 9.08333 72.45 9.09375C73.1167 9.09375 73.6427 9.23958 74.0281 9.53125C74.3927 9.80208 74.575 10.1615 74.575 10.6094C74.575 11.151 74.3302 11.6354 73.8406 12.0625C73.3198 12.5312 72.6896 12.7656 71.95 12.7656C71.8146 12.7656 71.6687 12.7552 71.5125 12.7344ZM72.5594 16.25C73.2781 16.25 73.6375 16.5573 73.6375 17.1719C74.1062 19.776 74.3406 22.6719 74.3406 25.8594C74.3406 26.2344 74.3354 26.6198 74.325 27.0156L74.2312 31.7188C74.2312 31.9583 73.9135 32.2344 73.2781 32.5469C72.6635 32.849 72.1687 33 71.7937 33C71.5958 33 71.4396 32.9531 71.325 32.8594C70.4812 32.1615 69.9865 31.0625 69.8406 29.5625C69.8094 29.2708 69.7937 28.9271 69.7937 28.5312C69.7937 27.6771 69.8562 26.5625 69.9812 25.1875C70.0333 24.625 70.0698 24.2083 70.0906 23.9375C70.1635 22.9167 70.2 21.8594 70.2 20.7656C70.2 20.401 70.1948 20.0312 70.1844 19.6562C70.174 19.4271 70.1479 19.1562 70.1062 18.8438C70.0958 18.75 70.0906 18.6562 70.0906 18.5625C70.0906 18.0625 70.2729 17.5521 70.6375 17.0312C71.0021 16.5104 71.6427 16.25 72.5594 16.25Z" fill="#EB5757"/>
</svg>
